<?xml version="1.0" standalone="no"?>
<!DOCTYPE svg PUBLIC "-//W3C//DTD SVG 20010904//EN"
 "http://www.w3.org/TR/2001/REC-SVG-20010904/DTD/svg10.dtd">
<svg version="1.0" xmlns="http://www.w3.org/2000/svg"
 width="70.000000pt" height="70.000000pt" viewBox="0 0 70.000000 70.000000"
 preserveAspectRatio="xMidYMid meet">
<metadata>
Created by potrace 1.14, written by Peter Selinger 2001-2017
</metadata>
<g transform="translate(0.000000,70.000000) scale(0.100000,-0.100000)"
fill="#000000" stroke="none">
<path d="M131 612 c-13 -2 -26 -12 -28 -23 -3 -10 -13 -19 -23 -19 -12 0 -20
-9 -22 -22 -2 -15 -9 -22 -21 -22 -20 2 -19 6 -21 -79 -1 -68 10 -97 34 -82 6
4 10 -4 10 -19 0 -19 5 -26 20 -26 13 0 20 -7 20 -19 0 -13 8 -21 23 -23 14
-2 23 -11 25 -26 2 -15 9 -22 20 -20 11 2 18 -5 20 -20 2 -13 10 -22 20 -22
10 0 22 -10 27 -22 6 -13 14 -21 18 -18 5 3 15 -7 23 -22 8 -16 21 -28 29 -28
8 0 15 -9 15 -20 0 -13 7 -20 20 -20 13 0 20 7 20 19 0 13 8 21 22 23 13 2 24
12 28 26 3 13 8 23 13 23 23 -2 27 1 27 18 0 13 8 21 23 23 14 2 21 9 19 20
-2 11 5 18 20 20 15 2 24 11 26 25 2 14 11 23 25 25 14 2 21 9 19 20 -2 11 5
18 20 20 15 2 22 9 22 21 -1 9 2 18 7 18 5 1 15 2 22 3 15 1 23 156 7 156 -5
0 -13 0 -17 -1 -5 0 -10 10 -13 23 -4 14 -15 24 -28 26 -12 2 -20 7 -18 11 11
17 -13 29 -64 31 -102 3 -110 2 -110 -20 0 -13 -7 -20 -20 -20 -13 0 -22 -9
-26 -25 -3 -14 -9 -25 -13 -25 -12 0 -28 15 -34 33 -3 9 -13 17 -21 17 -7 0
-16 9 -19 20 -4 15 -14 20 -44 21 -21 0 -47 2 -58 3 -11 1 -31 0 -44 -2z"/>
</g>
</svg>
